<svg version="1.0" xmlns="http://www.w3.org/2000/svg" width="57.333" height="64" viewBox="0 0 43 48"><path d="M4.4 2.5C3.7 4.2 5.6 7 7.5 7c1.9 0 3.6-2.5 2.9-4.4-.8-2-5.3-2.1-6-.1zM31.4 2.5C30.7 4.2 32.6 7 34.5 7c1.9 0 3.6-2.5 2.9-4.4-.8-2-5.3-2.1-6-.1zM5.2 12.2c-.7.7-.8 1.7-.2 2.9.8 1.4 2.1 1.7 6.2 1.6 4.9-.2 5.3-.4 5.3-2.7 0-2.3-.4-2.5-5.1-2.7-2.8-.1-5.6.3-6.2.9zM31.4 12.4c-1 2.6.4 4.8 2.8 4.4 3.3-.4 3.3-5.2 0-5.6-1.3-.2-2.5.3-2.8 1.2zM32.6 21.3c-2.6 1.9-1.7 5.2 1.4 5.2 1.8 0 2.6-.6 2.8-2.1.4-3-2-4.7-4.2-3.1zM4.5 22c-1.1 1.7.5 5 2.4 5 2.8 0 4.6-2.6 3.1-4.5-1.4-1.7-4.6-2-5.5-.5zM18.4 22.4c-1 2.6.4 4.8 2.8 4.4 1.7-.2 2.3-1 2.3-2.8 0-1.8-.6-2.6-2.3-2.8-1.3-.2-2.5.3-2.8 1.2zM4.7 32.3c-.3.8.1 2.3.8 3.4 1.1 1.4 1.8 1.6 3.2.7 2.8-1.7 2.3-4.8-.8-5.2-1.6-.2-2.9.3-3.2 1.1zM24.5 32.8c-.3.8.1 2.3 1 3.1 1.3 1.3 1.9 1.3 3.5.3s2.4-1 4 0 2.2 1 3.5-.3c.9-.8 1.3-2.3 1-3.1-.9-2.3-12.1-2.3-13 0zM5.2 42.3c-1.6 1.9.8 5 3.4 4.5 2.8-.5 2.6-5.2-.2-5.6-1.1-.2-2.6.3-3.2 1.1zM31.4 42.5c-.7 1.7 1.2 4.5 3.1 4.5 1.9 0 3.6-2.5 2.9-4.4-.8-2-5.3-2.1-6-.1z"/></svg>