<svg version="1.0" xmlns="http://www.w3.org/2000/svg" width="458.667" height="64" viewBox="0 0 344 48"><path d="M4.4 2.5C3.7 4.2 5.6 7 7.5 7c1.9 0 3.6-2.5 2.9-4.4-.8-2-5.3-2.1-6-.1zM31.4 2.5C30.7 4.2 32.6 7 34.5 7c1.9 0 3.6-2.5 2.9-4.4-.8-2-5.3-2.1-6-.1zM51.3 2.6c-.9 2.4 2.3 5.1 4.5 3.8 1.2-.8 2.2-.8 3.5 0 1.2.8 2.2.8 3.4 0 1.3-.8 2.3-.8 3.5 0 2.2 1.3 5.4-1.4 4.5-3.8C70 .9 65 .4 65 2c0 .6-.8.5-2-.2-1.6-1-2.4-1-4 0-1.2.7-2 .8-2 .2 0-1.6-5-1.1-5.7.6zM84.5 2.8c-.3.8.1 2.3 1 3.1 1.3 1.3 1.9 1.3 3.5.3 1.6-.9 2.4-1 3.9 0 1.5.9 2.3.9 3.7-.3 1.3-1.1 1.8-1.1 2.1-.2.5 1.5 3.9 1.7 4.8.3.4-.6 1.3-.5 2.5.3 1.5.9 2.5.9 3.8.1 1.2-.8 2.2-.8 3.3-.1 2.3 1.4 4.9.2 4.9-2.3s-2.6-3.7-4.9-2.3c-1.1.7-2.2.7-3.4-.1-1.2-.8-2.2-.8-3.5 0-1.2.8-2.2.8-3.5 0-1.2-.8-2.2-.8-3.7.2-1.1.7-2 .8-2 .3s-2.7-.9-5.9-.9c-4.5 0-6.1.4-6.6 1.6zM124.7 2.3c-.3.8.1 2.3.8 3.4 1.1 1.4 1.8 1.6 3.2.7 2.8-1.7 2.3-4.8-.8-5.2-1.6-.2-2.9.3-3.2 1.1zM151.4 2.5c-.7 1.7 1.2 4.5 3.1 4.5 1.9 0 3.6-2.5 2.9-4.4-.8-2-5.3-2.1-6-.1zM165.7 1.7c-1.3 1.2-.7 4.4.8 4.9.8.4 2.2.1 2.9-.5 1.1-.9 1.9-.9 3.5.1 1.5.9 2.3 1 3.2.1.8-.8 1.6-.9 2.9-.1 2.5 1.6 5.2.3 4.8-2.4-.3-2.1-.9-2.3-6-2.5-3.9-.1-5.8.2-5.8.9 0 .9-.3.9-1.2 0-1.3-1.3-4.1-1.6-5.1-.5zM192.7 1.6c-1 1.1-.9 4.2.3 4.9 2 1.2 5.1-.6 4.8-2.8-.3-2.2-3.6-3.5-5.1-2.1zM218.4 2.4c-1 2.6.4 4.8 2.8 4.4 1.7-.2 2.3-1 2.3-2.8 0-1.8-.6-2.6-2.3-2.8-1.3-.2-2.5.3-2.8 1.2zM238.4 2.5c-.4.8-.4 2.2 0 3 .6 1.7 4.2 2 5.1.5.4-.6 1.3-.5 2.5.3 1.5.9 2.4.9 3.9 0 1.3-.8 2.1-.9 2.9-.1.8.8 1.8.8 3.4.1 1.6-.7 2.8-.7 4 .1 2.2 1.3 5.4-1.4 4.5-3.8-.7-1.9-5.7-2.2-5.7-.4 0 .9-.3.9-1.2 0C256.3.7 252 .6 252 2c0 .6-.8.5-2-.2-1.6-1-2.4-1-4-.1-1.2.8-2.1.9-2.5.3-.9-1.5-4.5-1.2-5.1.5zM285.7 5.6c-1.2 1.2-.8 4.1.8 5.4 2 1.7 4.7-.5 4.3-3.4-.3-2.1-3.7-3.4-5.1-2zM331.7 6.7c-1.4 1.3-.7 4.3 1.2 5.3 1.5.7 2.3.6 3.5-.6 1.9-1.9 2-2.6.4-4.2-1.3-1.3-4.1-1.6-5.1-.5zM299.4 10.4c-1 2.6.4 4.8 2.8 4.4 1.7-.2 2.3-1 2.3-2.8 0-1.8-.6-2.6-2.3-2.8-1.3-.2-2.5.3-2.8 1.2zM306.4 10.5c-.4.8-.4 2.2 0 3 .6 1.7 4.2 2 5.1.5.4-.6 1.3-.5 2.4.2 2.4 1.5 5.1.4 5.1-2.2s-2.7-3.7-5.1-2.2c-1.1.7-2 .8-2.4.2-.9-1.5-4.5-1.2-5.1.5zM198.7 11.7c-1.1 1.1-1.7 1.3-1.7.5 0-1.8-4.7-1.4-5.4.5-.4.9 0 2.3.9 3.2 1.3 1.3 1.9 1.4 3.6.2 1.5-.9 2.4-1 3.2-.2 1.7 1.7 3.5 1.3 4.7-.8.7-1.5.6-2.3-.6-3.5-2-2-2.6-2-4.7.1zM232.5 11.3c-2 1.6-1.5 4.4 1.1 5.4 2.3.9 5.1-2.3 3.8-4.4-1.4-2.3-2.7-2.6-4.9-1zM4.9 12.6c-.9 1.1-.9 1.7.1 2.9 1.4 1.7 5 2 5 .5 0-.6.7-.6 1.9.1 2.6 1.7 5.3.4 4.9-2.3-.3-2-.9-2.3-5.5-2.5-3.4-.1-5.6.3-6.4 1.3zM31.4 12.4c-1 2.6.4 4.8 2.8 4.4 3.3-.4 3.3-5.2 0-5.6-1.3-.2-2.5.3-2.8 1.2zM44.6 12.6c-1.3 3.3 3 5.8 5.3 3 1.6-2 .3-4.6-2.4-4.6-1.3 0-2.6.7-2.9 1.6zM71.4 12.4c-1 2.6.4 4.8 2.8 4.4 1.7-.2 2.3-1 2.3-2.8 0-1.8-.6-2.6-2.3-2.8-1.3-.2-2.5.3-2.8 1.2zM98.4 12.4c-1 2.6.4 4.8 2.8 4.4 1.7-.2 2.3-1 2.3-2.8 0-1.8-.6-2.6-2.3-2.8-1.3-.2-2.5.3-2.8 1.2zM125 12.5c-1.5 1.9.3 4.5 3.1 4.5 1.9 0 3.5-3.3 2.4-5-.9-1.5-4.1-1.2-5.5.5zM151.4 12.5c-.7 1.7 1.2 4.5 3.1 4.5.7 0 1.8-.7 2.5-1.5 1-1.2 1-1.8 0-3-1.6-1.9-4.9-1.9-5.6 0zM171.6 12.6c-.7 1.9 1 4.4 2.9 4.4s3.6-2.5 2.9-4.4c-.3-.9-1.6-1.6-2.9-1.6-1.3 0-2.6.7-2.9 1.6zM218.4 12.4c-1 2.6.4 4.8 2.8 4.4 1.7-.2 2.3-1 2.3-2.8 0-1.8-.6-2.6-2.3-2.8-1.3-.2-2.5.3-2.8 1.2zM280.1 14.3c-2.5 3.1 2 7.1 4.8 4.2 1.2-1.2 1.3-1.9.5-3.3-1.5-2.2-3.8-2.6-5.3-.9zM337.3 13.7c-1.5.6-1.7 4.9-.3 5.8 2 1.2 5-.6 5-3 0-1.8-2.1-4-3.3-3.4-.1 0-.8.3-1.4.6zM299.7 16.7c-1.2 1.1-.8 5.1.6 5.6.9.4.9.8-.1 1.5-2.2 1.5-1.1 5.6 1.6 6 2.7.4 4-2.3 2.3-4.9-.8-1.5-.8-2.3 0-3.8.7-1 .9-2.6.6-3.5-.6-1.6-3.8-2.2-5-.9zM319.3 16.7c-1.7.6-1.6 3.8.1 5.2 2.8 2.3 6.8-1.7 4.5-4.5-1.2-1.4-2.4-1.6-4.6-.7zM32.6 21.3c-2.6 1.9-1.7 5.2 1.4 5.2 1.8 0 2.6-.6 2.8-2.1.4-3-2-4.7-4.2-3.1zM45.4 21.4c-2 1.5-1.4 4.3 1.2 5.3 2 .8 4.7-1.9 3.9-3.9-.9-2.3-3-2.9-5.1-1.4zM192.4 21.4c-2 1.5-1.4 4.3 1.2 5.3 2 .8 4.7-1.9 3.9-3.9-.9-2.3-3-2.9-5.1-1.4zM206.3 20.7c-1.8.7-1.6 5.2.2 5.9 1.8.7 4.5-1.2 4.5-3.2 0-1.6-3-3.3-4.7-2.7zM259.8 21.4c-1 1-1.7 1.1-3 .2-1.3-.8-2.3-.8-3.6 0-1.2.8-2.2.8-3.3.1-2.3-1.4-4.9-.2-4.9 2.3s2.6 3.7 4.9 2.3c1.1-.7 2.2-.7 3.4.1 1.2.8 2.2.8 3.5 0 1.2-.8 2.2-.8 3.4-.1 1.8 1.2 4.8-.6 4.8-2.9 0-2.2-3.7-3.7-5.2-2zM4.5 22c-1.1 1.7.5 5 2.4 5 2.8 0 4.6-2.6 3.1-4.5-1.4-1.7-4.6-2-5.5-.5zM18.4 22.4c-1 2.6.4 4.8 2.8 4.4 1.7-.2 2.3-1 2.3-2.8 0-1.8-.6-2.6-2.3-2.8-1.3-.2-2.5.3-2.8 1.2zM71.4 22.4c-1 2.6.4 4.8 2.8 4.4 1.7-.2 2.3-1 2.3-2.8 0-1.8-.6-2.6-2.3-2.8-1.3-.2-2.5.3-2.8 1.2zM98.4 22.4c-1 2.6.4 4.8 2.8 4.4 1.7-.2 2.3-1 2.3-2.8 0-1.8-.6-2.6-2.3-2.8-1.3-.2-2.5.3-2.8 1.2zM125 22.5c-2.5 3 3 6.1 5.8 3.3.9-.9 1.2-.9 1.2 0 0 1.4 3.6 1.6 4.5.2.4-.6 1.3-.5 2.5.3 1.5.9 2.5.9 3.8.1 1.2-.8 2.2-.8 3.5 0 1.2.8 2.2.8 3.5 0 1.2-.8 2.2-.8 3.3-.1 2.3 1.4 4.9.2 4.9-2.3s-2.6-3.7-4.9-2.3c-1.1.7-2.2.7-3.4-.1-1.2-.8-2.2-.8-3.5 0-1.2.8-2.2.8-3.5 0-1.2-.8-2.2-.8-3.7.1-1.2.8-2.1.9-2.5.3-.9-1.4-4.2-1.2-4.9.2-.5 1-.7 1-1.2 0-.8-1.7-3.9-1.5-5.4.3zM171.6 22.6c-.8 2 1.1 4.4 3.4 4.4 2 0 3.2-2.3 2.4-4.5-.8-2-5-1.9-5.8.1zM218.4 22.4c-1 2.6.4 4.8 2.8 4.4 1.7-.2 2.3-1 2.3-2.8 0-1.8-.6-2.6-2.3-2.8-1.3-.2-2.5.3-2.8 1.2zM231.6 22.6c-.8 2 1.1 4.4 3.4 4.4 2 0 3.2-2.3 2.4-4.5-.8-2-5-1.9-5.8.1zM280.1 22.3c-2.5 3.1 2 7.1 4.8 4.2 1.2-1.2 1.3-1.9.5-3.3-1.5-2.2-3.8-2.6-5.3-.9zM336.4 22.4c-1 2.6.4 4.8 2.8 4.4 1.7-.2 2.3-1 2.3-2.8 0-1.8-.6-2.6-2.3-2.8-1.3-.2-2.5.3-2.8 1.2zM307 24.5c-.7.8-1 2.2-.6 3 .9 2.4 3.7 3 5.1 1.2 1.1-1.5 1.3-1.5 2.8 0 1.7 1.8 4.4 1.2 5.4-1.3.3-.8-.1-2.3-1-3.1-1.4-1.4-1.8-1.5-3.9-.1-2 1.3-2.5 1.3-3.6.2-1.6-1.8-2.7-1.8-4.2.1zM280.1 30.3c-2.5 3.1 2 7.1 4.8 4.2 1.2-1.2 1.3-1.9.5-3.3-1.5-2.2-3.8-2.6-5.3-.9zM336.4 30.4c-1 2.6.4 4.8 2.8 4.4 1.7-.2 2.3-1 2.3-2.8 0-1.8-.6-2.6-2.3-2.8-1.3-.2-2.5.3-2.8 1.2zM4.6 32.6c-1 2.6 1.9 5.2 4.2 3.8.9-.6 1.7-2 1.7-3 0-2.6-5-3.2-5.9-.8zM24.5 32.8c-.3.8.1 2.3 1 3.1 1.3 1.3 1.9 1.3 3.5.3s2.4-1 4 0 2.2 1 3.5-.3c.9-.8 1.3-2.3 1-3.1-.9-2.3-12.1-2.3-13 0zM44.4 32.5c-.7 1.7 1.2 4.5 3.1 4.5 1.9 0 3.6-2.5 2.9-4.4-.8-2-5.3-2.1-6-.1zM71.4 32.4c-1 2.6.4 4.8 2.8 4.4 1.7-.2 2.3-1 2.3-2.8 0-1.8-.6-2.6-2.3-2.8-1.3-.2-2.5.3-2.8 1.2zM98.4 32.4c-1 2.6.4 4.8 2.8 4.4 1.7-.2 2.3-1 2.3-2.8 0-1.8-.6-2.6-2.3-2.8-1.3-.2-2.5.3-2.8 1.2zM125 32.5c-1.5 1.9.3 4.5 3.1 4.5 2.3 0 3.2-1.5 2.4-4-.7-2.4-3.7-2.6-5.5-.5zM151.4 32.5c-.7 1.7 1.2 4.5 3.1 4.5 1.9 0 3.6-2.5 2.9-4.4-.8-2-5.3-2.1-6-.1zM172 32.5c-1 1.2-1 1.8 0 3 2.6 3.2 6.8.8 5.4-3-.4-.8-1.4-1.5-2.4-1.5s-2.3.7-3 1.5zM191.4 32.5c-.7 1.7 1.2 4.5 3.1 4.5 1.9 0 3.6-2.5 2.9-4.4-.8-2-5.3-2.1-6-.1zM211.3 32.6c-.9 2.4 2.3 5.1 4.5 3.8 1.2-.8 2.2-.8 3.3-.1 2.3 1.4 4.9.2 4.9-2.3 0-2.6-2.7-3.7-5.1-2.1-1.2.7-1.9.7-1.9.1 0-1.6-5-1.1-5.7.6zM232.1 32.4c-1.6 2-.3 4.6 2.4 4.6 2.7 0 4-2.6 2.4-4.6-1.5-1.8-3.3-1.8-4.8 0zM259 32.5c-1 1.2-1 1.8 0 3 2.6 3.2 6.8.8 5.4-3-.4-.8-1.4-1.5-2.4-1.5s-2.3.7-3 1.5zM299.4 32.4c-1 2.6.4 4.8 2.8 4.4 1.7-.2 2.3-1 2.3-2.8 0-1.8-.6-2.6-2.3-2.8-1.3-.2-2.5.3-2.8 1.2zM314.5 32.3c-2 1.6-1.5 4.4 1.1 5.4 2.3.9 5.1-2.3 3.8-4.4-1.4-2.3-2.7-2.6-4.9-1zM285.4 37.4c-1 2.6.4 4.8 2.8 4.4 1.7-.2 2.3-1 2.3-2.8 0-1.8-.6-2.6-2.3-2.8-1.3-.2-2.5.3-2.8 1.2zM331.4 38.2c-1.2 4 4.5 6 6 2.1.4-.9.1-2.2-.5-2.9-1.7-2.1-4.7-1.7-5.5.8zM299.7 38.6c-1.3 1.3-.7 5.2.9 5.8 2.2.9 4.6-1.3 4.2-3.8-.3-2.1-3.7-3.4-5.1-2zM318.4 40.5c-1.5 3.8 2.9 6.2 5.6 3 1-1.2 1-1.8 0-3-1.6-1.9-4.9-1.9-5.6 0zM5 42.5c-1 1.2-1 1.8 0 3C7 48 10.5 47 10.5 44S7 40 5 42.5zM31.4 42.5c-.7 1.7 1.2 4.5 3.1 4.5 1.9 0 3.6-2.5 2.9-4.4-.8-2-5.3-2.1-6-.1zM51.5 42c-1.1 1.8.6 5 2.5 5 1 0 2.2-.4 2.5-1 .4-.6 1.3-.5 2.5.3 1.6.9 2.4.9 4-.1 1.2-.7 2-.8 2-.2 0 1.5 3.6 1.2 4.9-.4 2.3-2.7.2-4.5-5.2-4.4-2.9 0-5.7.5-6.4 1-.7.5-1.4.5-1.8-.2-.8-1.3-4.2-1.3-5 0zM98.4 42.4c-1 2.6.4 4.8 2.8 4.4 1.7-.2 2.3-1 2.3-2.8 0-1.8-.6-2.6-2.3-2.8-1.3-.2-2.5.3-2.8 1.2zM125.1 42.4c-1.7 2-.2 4.6 2.5 4.6 2.9 0 4.1-2.4 2.4-4.5-1.6-1.9-3.4-1.9-4.9-.1zM151.4 42.5c-.7 1.7 1.2 4.5 3.1 4.5 1.9 0 3.6-2.5 2.9-4.4-.8-2-5.3-2.1-6-.1zM165.4 42.5c-1.4 3.7 2.6 6.1 5.4 3.3.9-.9 1.2-.9 1.2 0 0 .7 1.9 1 5.8.9 5.1-.2 5.7-.4 6-2.5.4-2.7-2.3-4-4.8-2.4-1.3.8-2.1.7-2.9-.1-.9-.9-1.6-.9-3.1.1-1.2.7-2.1.8-2.5.2-.9-1.5-4.5-1.2-5.1.5zM192.1 42.4c-1.6 2-.3 4.6 2.4 4.6 2.7 0 4-2.6 2.4-4.6-1.5-1.8-3.3-1.8-4.8 0zM218.6 42.6c-.7 1.9 1 4.4 2.9 4.4s3.6-2.5 2.9-4.4c-.8-2.1-5-2.1-5.8 0zM238.4 42.5c-.4.8-.4 2.2 0 3 .6 1.7 4.2 2 5.1.5.4-.6 1.3-.5 2.5.3 1.5.9 2.5.9 3.7.1 1.2-.8 2.3-.8 3.4-.1 2.3 1.4 4.9.2 4.9-2.3s-2.6-3.7-4.9-2.3c-1.1.7-2.1.7-3.3-.1-1.3-.8-2.3-.8-3.8.1-1.2.8-2.1.9-2.5.3-.9-1.5-4.5-1.2-5.1.5z"/></svg>